<?xml version="1.0" standalone="no"?>
<!DOCTYPE svg PUBLIC "-//W3C//DTD SVG 20010904//EN"
 "http://www.w3.org/TR/2001/REC-SVG-20010904/DTD/svg10.dtd">
<svg version="1.0" xmlns="http://www.w3.org/2000/svg"
 width="1224.000000pt" height="1224.000000pt" viewBox="0 0 1224.000000 1224.000000"
 preserveAspectRatio="xMidYMid meet">
<metadata>
Created by potrace 1.14, written by Peter Selinger 2001-2017
</metadata>
<g transform="translate(0.000000,1224.000000) scale(0.100000,-0.100000)"
fill="#000000" stroke="none">
<path d="M0 6120 l0 -6120 6120 0 6120 0 0 6120 0 6120 -6120 0 -6120 0 0
-6120z m7705 2232 c177 -45 331 -115 491 -220 109 -72 130 -92 159 -157 49
-106 42 -139 -27 -137 -62 3 -90 14 -255 104 -200 110 -316 166 -363 177 -50
11 -121 -2 -182 -34 -42 -22 -60 -25 -160 -25 -111 0 -157 -10 -165 -37 -3 -9
25 -13 106 -15 l110 -3 -205 -169 -205 -169 -67 0 -67 0 59 -6 60 -6 -74 -60
c-118 -96 -115 -95 -206 -95 -141 0 -203 -39 -66 -42 l77 -1 -75 -7 c-117 -11
-220 -11 -220 0 0 6 -9 10 -19 10 -10 0 -29 9 -42 20 l-24 19 24 1 c26 0 26
-4 -9 97 -22 61 -22 61 -69 68 -42 6 -60 18 -61 37 0 4 24 8 52 10 l52 3 8 41
c10 50 35 74 163 158 l100 66 -90 1 c-49 0 -101 4 -115 8 -24 7 -23 9 24 39
49 32 51 32 179 32 l129 0 174 110 c177 113 227 139 324 170 l55 18 -95 2
c-52 1 -122 6 -155 10 -35 5 73 7 265 5 290 -2 334 -5 405 -23z m-2559 -28
c28 -19 54 -34 58 -34 4 0 24 -14 45 -30 21 -17 54 -35 73 -41 22 -6 38 -17
41 -29 3 -12 14 -20 26 -20 13 0 41 -19 65 -45 25 -25 52 -45 60 -45 19 0 61
-24 91 -52 27 -25 134 -88 150 -88 7 0 23 -8 36 -19 13 -10 50 -31 82 -46 62
-29 102 -75 113 -133 l7 -32 -67 0 c-36 0 -66 -2 -66 -4 0 -2 -3 -11 -6 -19
-4 -12 8 -17 60 -22 36 -4 66 -9 66 -10 0 -27 -17 -35 -76 -35 -52 0 -65 -3
-74 -19 -16 -30 -14 -31 50 -31 63 0 66 -3 50 -44 -9 -24 -14 -26 -70 -26
-107 0 -142 -39 -37 -41 l62 -2 -60 -7 c-33 -4 -94 -8 -137 -9 -64 -1 -84 3
-127 25 -28 15 -51 32 -51 38 0 14 -73 66 -92 66 -19 0 -79 45 -71 53 3 4 -11
14 -32 23 -52 21 -94 54 -89 68 3 7 -8 18 -23 25 -70 32 -98 50 -96 63 3 16
-56 58 -81 58 -12 0 -16 5 -13 14 7 17 -33 46 -62 46 -23 0 -37 16 -19 22 15
5 -146 126 -179 134 -15 4 -43 18 -62 31 -27 19 -43 23 -66 18 -16 -4 -56 -9
-88 -12 -54 -4 -58 -7 -53 -26 4 -20 -11 -30 -134 -94 l-138 -73 -151 0 c-83
0 -151 3 -151 8 0 4 16 31 36 60 27 40 58 68 124 110 49 31 89 60 89 65 1 4
-37 7 -84 7 -70 0 -85 3 -85 15 0 9 -10 19 -22 24 -22 8 -21 9 12 26 28 14 71
20 206 26 117 5 190 13 235 25 l64 19 -70 6 c-38 4 -115 7 -170 8 -100 2 -100
2 -70 19 26 15 71 18 315 23 157 3 357 3 445 1 l160 -4 51 -34z m1339 -394 c4
-6 -32 -10 -102 -10 -73 0 -103 3 -93 10 20 13 187 13 195 0z m-2620 -25 c-34
-16 -111 -20 -119 -6 -9 14 13 19 84 19 63 0 64 0 35 -13z m199 -54 c11 -17
-51 -32 -115 -29 -51 2 -64 6 -67 21 -3 15 6 17 87 17 49 0 92 -4 95 -9z
m2276 -256 c0 -20 -5 -25 -25 -25 -14 0 -29 8 -35 19 -15 29 -13 31 25 31 31
0 35 -3 35 -25z m1690 -76 c10 -5 -1 -8 -32 -9 -27 0 -48 4 -48 9 0 21 43 21
80 0z m166 -94 c76 -45 139 -143 158 -247 l7 -38 -51 0 c-27 0 -50 -4 -50 -10
0 -5 23 -10 50 -10 l51 0 -3 -57 -3 -58 -62 -3 c-53 -3 -64 -6 -78 -28 -22
-34 -78 -31 -83 4 -3 20 0 22 49 22 l52 0 -7 52 c-8 60 -12 68 -32 68 -8 0
-14 5 -14 10 0 6 7 10 15 10 19 0 -18 107 -81 232 -38 75 -41 87 -26 91 21 4
55 -7 108 -38z m-4196 -25 c0 -10 -5 -31 -12 -45 -11 -24 -15 -25 -90 -25 -43
0 -78 3 -78 7 0 4 12 24 26 45 26 37 28 38 90 38 57 0 64 -2 64 -20z m190 11
c0 -14 -27 -21 -73 -20 l-42 1 30 13 c34 16 85 19 85 6z m-60 -86 c0 -3 -8
-22 -19 -43 -10 -20 -24 -56 -31 -79 l-13 -43 -53 0 c-56 0 -84 -7 -84 -21 0
-5 26 -9 58 -9 32 0 61 -2 63 -5 3 -2 3 -26 -1 -52 l-5 -48 -55 -5 c-54 -5
-55 -5 -51 -35 1 -16 6 -34 9 -40 4 -5 5 -18 4 -27 -3 -15 5 -18 43 -18 47 0
48 -1 59 -52 6 -24 4 -27 -25 -26 -22 1 -39 11 -63 40 -25 29 -40 38 -64 38
-25 0 -35 8 -61 47 -42 64 -41 73 14 73 l45 0 0 65 c0 69 28 157 70 215 20 28
25 30 91 30 38 0 69 -2 69 -5z m3350 -16 c25 -6 61 -19 80 -29 19 -11 54 -28
78 -39 57 -27 148 -114 183 -176 16 -27 29 -53 29 -57 0 -5 -16 -8 -36 -8 -31
0 -35 -3 -32 -22 2 -19 10 -24 41 -26 l37 -3 0 -56 c0 -62 22 -118 54 -135 11
-6 52 -31 90 -55 63 -41 67 -45 50 -58 -24 -17 -66 -9 -121 22 -65 37 -203 81
-296 93 -94 13 -184 4 -314 -30 -42 -11 -98 -20 -124 -20 -52 0 -72 -14 -36
-24 l22 -6 -25 -15 c-14 -8 -40 -14 -58 -15 -36 0 -92 -25 -92 -40 0 -6 8 -10
18 -10 12 0 8 -6 -13 -20 -16 -11 -40 -20 -53 -20 -33 0 -65 -19 -58 -35 6
-18 -52 -45 -97 -45 -33 0 -34 1 -33 37 1 29 5 39 21 41 11 2 28 11 38 20 16
14 16 17 3 22 -15 5 -15 7 -1 28 9 12 27 22 39 22 13 0 29 7 36 15 10 13 0 27
-66 90 -43 41 -85 77 -94 80 -8 3 -20 13 -27 23 -11 18 -1 60 32 135 6 14 2
17 -26 18 l-34 1 40 10 c29 7 47 19 63 44 l22 34 -34 0 c-46 0 -50 10 -20 48
23 29 30 32 83 32 48 0 62 4 91 30 l35 29 -57 1 c-32 0 -58 4 -58 9 0 14 24
19 125 26 50 4 110 13 135 21 104 33 246 38 360 13z m-2255 -28 c80 -28 167
-82 171 -104 3 -25 23 -47 43 -47 38 0 156 -175 149 -223 -2 -12 -11 -23 -23
-26 -11 -2 -44 -28 -74 -57 -47 -46 -52 -54 -33 -54 34 0 27 -15 -38 -72 -33
-29 -60 -56 -60 -60 0 -4 42 -42 93 -84 50 -42 93 -80 95 -85 4 -11 -49 -8
-64 3 -36 26 -310 173 -373 199 -181 75 -327 74 -582 -6 -79 -25 -132 -34
-215 -39 -60 -4 -131 -9 -159 -11 -36 -4 -44 -2 -30 4 11 5 30 10 43 10 26 1
171 110 172 129 0 8 -18 12 -57 12 l-57 0 20 20 c14 15 39 22 88 27 64 6 69 8
81 37 7 17 11 34 9 38 -3 5 -25 8 -50 8 -42 0 -59 15 -30 26 8 3 12 13 9 24
-3 11 -2 31 1 45 6 22 11 25 55 25 47 0 49 1 80 51 17 28 31 52 31 55 0 2 -27
4 -60 4 -60 0 -80 12 -37 24 12 3 50 6 84 6 34 0 65 5 68 10 17 27 213 110
310 130 74 16 273 5 340 -19z m789 -265 c19 -119 18 -127 -3 -133 -30 -8 -29
-53 0 -53 20 0 21 -4 16 -52 -4 -33 -13 -58 -24 -65 -16 -12 -16 -14 0 -25 16
-12 16 -18 -2 -90 -10 -43 -29 -95 -43 -115 -29 -44 -163 -177 -228 -226 -55
-42 -116 -114 -134 -159 -16 -41 -19 -118 -7 -181 10 -56 -3 -77 -47 -77 -42
0 -64 48 -68 149 -4 84 9 161 26 161 6 0 19 20 31 45 12 25 25 45 30 45 4 0
39 31 76 70 37 38 74 70 81 70 6 0 12 6 12 13 0 7 19 25 43 40 49 31 80 74
108 146 22 59 25 107 7 114 -10 3 -9 8 3 18 10 8 19 36 22 67 5 47 4 52 -13
52 -31 0 -27 46 4 54 20 5 24 14 30 60 9 80 19 101 50 102 21 2 26 -3 30 -30z
m401 8 l-30 -13 27 -1 c29 0 30 -2 43 -83 5 -28 2 -39 -10 -43 -22 -9 -19 -45
4 -51 26 -7 42 -110 20 -124 -12 -8 -11 -11 4 -20 18 -11 24 -39 7 -39 -16 0
-12 -15 10 -40 11 -13 20 -34 20 -47 0 -27 136 -169 211 -220 44 -31 126 -119
146 -158 6 -11 14 -42 18 -69 3 -27 11 -56 17 -66 8 -12 6 -26 -7 -53 -9 -21
-18 -49 -20 -65 -3 -39 -15 -72 -26 -72 -5 0 -9 7 -9 15 0 8 -8 15 -17 14 -11
0 -13 -3 -5 -6 6 -2 9 -9 6 -14 -8 -14 -33 22 -34 48 0 13 5 43 12 67 9 33 9
51 1 68 -6 13 -19 45 -30 72 -14 37 -38 67 -103 126 -47 43 -111 99 -143 123
-54 42 -116 111 -117 130 0 5 -7 15 -15 23 -8 9 -15 28 -15 44 0 16 -5 32 -11
36 -7 4 -8 20 -4 42 4 24 2 38 -7 44 -10 8 -10 11 0 15 7 3 12 26 12 63 0 49
-3 58 -20 63 -11 3 -20 14 -20 25 0 11 9 22 20 25 17 4 20 14 20 66 0 60 -1
61 -27 62 -27 0 -26 1 7 13 19 6 49 12 65 13 l30 1 -30 -14z m1915 -82 c0 -25
-34 -52 -66 -52 -31 0 -34 2 -34 30 0 29 1 30 50 30 28 0 50 -3 50 -8z m-4102
-372 c-10 -6 -25 -7 -40 -1 -20 9 -18 10 17 10 31 0 36 -2 23 -9z m-145 -249
c-8 -5 -33 -56 -33 -66 0 -3 18 -8 40 -11 46 -8 54 -24 11 -24 -37 0 -81 -16
-81 -30 0 -5 21 -10 46 -10 42 0 45 -1 38 -22 -9 -30 -4 -28 -62 -35 -73 -8
-87 -53 -16 -53 19 0 34 -4 34 -10 0 -5 -12 -10 -27 -10 -46 0 -71 -11 -76
-31 -4 -15 0 -19 23 -19 16 0 35 -3 44 -6 29 -11 17 -24 -21 -24 -49 0 -74
-15 -41 -23 12 -4 34 -7 47 -7 19 0 22 -4 17 -22 -3 -13 -6 -33 -6 -45 0 -18
-6 -23 -24 -23 -37 0 -56 -10 -56 -30 0 -13 11 -20 39 -25 34 -6 41 -11 47
-38 10 -50 51 -129 84 -164 16 -18 30 -36 30 -41 0 -9 75 -52 167 -96 114 -55
237 -69 347 -41 70 18 156 54 156 66 0 4 -19 9 -42 11 l-43 3 75 28 c47 17 95
27 128 27 43 0 81 12 198 62 92 39 143 66 140 73 -3 8 20 18 67 28 40 8 90 20
112 26 58 15 186 13 234 -4 68 -24 144 -81 197 -146 54 -68 97 -99 177 -129
76 -28 171 -32 161 -7 -3 9 10 20 39 31 24 9 67 37 96 61 29 25 57 45 62 45 5
0 37 28 72 63 34 35 85 74 112 88 44 21 63 24 165 24 127 0 101 7 420 -125 63
-26 166 -69 229 -95 63 -26 144 -54 181 -64 39 -10 65 -21 63 -28 -10 -29 179
-42 252 -18 l40 13 -40 2 c-48 1 -129 17 -99 19 12 0 57 18 100 40 60 29 96
40 149 45 65 5 72 8 108 45 20 22 37 45 37 51 0 5 -23 10 -52 10 -66 0 -55 11
19 19 54 6 59 8 75 41 9 19 20 56 23 83 l7 47 -41 0 c-41 0 -59 19 -21 21 11
1 25 3 30 4 6 1 15 3 20 4 6 0 10 7 10 15 0 10 -13 16 -37 18 -34 3 -38 6 -40
33 -1 17 -4 42 -7 58 -4 21 -2 27 12 27 38 0 44 14 26 58 -12 33 -23 44 -48
50 -40 11 -49 42 -11 42 21 0 26 4 21 16 -3 9 -6 20 -6 24 0 5 -16 12 -35 16
-19 3 -35 10 -35 14 0 5 -3 15 -6 24 -5 12 0 16 20 16 29 0 34 14 10 28 -15 8
-15 10 1 16 22 8 80 -20 99 -49 8 -12 35 -32 59 -44 42 -20 90 -61 72 -61 -4
0 0 -9 10 -20 10 -11 25 -20 34 -20 9 0 23 -5 31 -10 13 -9 13 -11 0 -20 -12
-8 -10 -10 11 -10 15 0 37 -12 54 -30 28 -30 29 -31 8 -36 -20 -6 -19 -7 13
-62 30 -50 39 -58 71 -62 42 -6 58 -30 20 -30 -29 0 -37 -7 -30 -26 3 -8 19
-14 39 -14 39 0 54 -18 83 -103 l20 -57 -39 0 c-21 0 -42 -4 -45 -10 -4 -6 11
-10 39 -10 52 0 54 -2 62 -64 l7 -46 -41 0 c-58 0 -62 -18 -5 -22 l48 -3 8
-59 c5 -32 6 -61 3 -63 -3 -3 -29 -8 -58 -11 -48 -4 -67 -14 -68 -34 0 -5 20
-8 44 -8 92 0 104 -26 15 -32 -55 -4 -78 -16 -79 -39 0 -10 40 -19 88 -19 31
0 42 -4 42 -15 0 -12 -14 -15 -70 -15 -59 0 -71 -3 -80 -20 -10 -19 -8 -20 54
-20 70 0 80 -6 70 -44 -5 -22 -11 -24 -85 -28 -76 -3 -98 -12 -99 -40 0 -5 34
-8 75 -8 41 0 75 -2 75 -5 0 -3 -11 -27 -24 -54 -28 -55 -44 -61 -152 -61 -52
0 -65 -3 -74 -19 -9 -18 -4 -20 76 -26 82 -7 84 -8 68 -26 -14 -16 -32 -19
-109 -19 -85 0 -93 -2 -115 -25 l-23 -25 91 0 c51 0 92 -4 92 -9 0 -21 -32
-29 -135 -34 -123 -6 -169 -20 -160 -48 5 -16 -2 -19 -72 -22 -63 -2 -54 -4
47 -6 69 -2 139 -6 155 -10 29 -7 29 -7 -27 -29 -118 -45 -515 -85 -838 -86
-210 0 -256 3 -435 29 -266 40 -317 39 -418 -8 -92 -43 -101 -44 -274 -52
l-133 -7 0 25 0 25 -272 4 c-226 4 -281 7 -317 21 -54 21 -113 21 -214 2 -43
-8 -124 -16 -180 -17 l-102 -1 125 -7 c95 -5 144 -13 205 -33 69 -23 140 -42
220 -60 11 -3 3 -5 -17 -6 -67 -2 -41 -19 70 -45 175 -42 248 -50 427 -51 219
0 357 24 585 101 85 30 119 36 185 36 72 0 415 -31 424 -38 2 -1 -10 -21 -25
-43 l-29 -41 -93 0 -92 0 -47 -42 -46 -43 99 -5 99 -5 -62 -62 -62 -63 -121 0
c-109 0 -121 -2 -132 -20 -7 -11 -21 -20 -32 -20 -28 0 -156 -61 -150 -71 3
-5 62 -9 132 -9 73 0 122 -4 116 -9 -18 -16 -108 -63 -183 -94 l-76 -31 -490
-1 c-457 0 -494 1 -545 19 -77 27 -200 85 -200 95 0 5 -22 18 -50 29 -93 39
-312 235 -391 351 -34 50 -52 61 -100 61 -18 0 -33 9 -44 26 -9 14 -15 27 -13
29 2 2 73 12 158 23 l155 20 -387 1 c-246 1 -389 5 -393 11 -3 6 -17 10 -31
10 -14 0 -33 4 -42 9 -9 4 -32 11 -50 14 -30 6 -32 5 -26 -18 8 -31 2 -31 -37
-2 -27 19 -47 23 -152 27 -93 4 -131 10 -160 25 -30 15 -35 21 -21 25 12 5 4
10 -29 19 -34 10 -61 29 -108 77 -50 50 -71 64 -103 70 l-41 7 33 11 c41 14
33 24 -29 32 -62 8 -73 32 -19 40 22 4 40 9 39 13 0 3 -10 26 -22 51 -22 44
-23 45 -75 48 -37 2 -52 7 -52 18 0 10 13 14 46 14 33 0 45 4 41 13 -2 6 -10
38 -17 70 -13 56 -14 57 -49 58 -20 1 -47 5 -61 9 -19 6 -12 8 32 9 l57 1 -5
88 c-3 48 -7 93 -10 100 -2 8 -23 12 -59 12 -42 0 -55 3 -55 15 0 11 12 15 51
15 31 0 48 4 44 10 -3 6 -26 10 -51 10 -40 0 -44 2 -44 24 0 14 4 36 10 50 8
23 15 25 71 28 l63 3 19 48 c11 26 17 50 14 54 -4 3 -35 9 -69 13 -80 8 -54
23 31 18 59 -3 60 -2 75 29 l15 32 -65 6 c-35 4 -64 11 -64 15 0 18 31 30 98
36 67 6 73 9 101 45 36 45 37 49 11 49 -11 0 -20 7 -20 15 0 11 11 15 39 15
42 0 62 14 35 24 -9 3 -39 6 -67 6 l-51 0 21 22 c18 17 37 22 102 26 93 5 108
20 26 24 -85 5 -71 23 19 26 71 3 83 6 118 33 21 17 38 35 38 39 0 5 -24 10
-52 12 -81 5 -63 22 34 33 96 11 126 25 57 26 -78 1 -85 10 -37 47 27 21 53
32 74 32 44 0 64 9 64 29 1 13 2 13 11 -3 7 -10 7 -21 2 -25z m2922 -2221 c-3
-5 -44 -10 -91 -10 -49 0 -84 4 -84 10 0 6 37 10 91 10 57 0 88 -4 84 -10z
m-655 -230 c-14 -4 -97 -8 -185 -8 -88 0 -171 4 -185 8 -14 5 66 8 185 8 119
0 199 -3 185 -8z"/>
<path d="M4432 8191 c-61 -16 -46 -21 54 -21 69 1 94 4 82 10 -24 15 -98 20
-136 11z"/>
<path d="M8540 5043 c-24 -5 -40 -19 -40 -35 0 -5 20 -8 45 -8 41 0 45 2 45
25 0 25 -3 26 -50 18z"/>
</g>
</svg>
